<?xml version="1.0" encoding="UTF-8"?>
<svg id="Layer_1" xmlns="http://www.w3.org/2000/svg" version="1.1" viewBox="0 0 14 14">
  <!-- Generator: Adobe Illustrator 30.2.1, SVG Export Plug-In . SVG Version: 2.1.1 Build 1)  -->
  <path d="M13.1,6.8c-.5,0-.9.4-.9.9v3.9c0,.2-.3.5-.5.5H2.4c-.2,0-.5-.3-.5-.5V2.2c0-.1.2-.3.3-.3h4.1c.5,0,.9-.5.9-1,0-.5-.4-.9-.9-.9H.9C.5,0,0,.4,0,.8v11c.1,1.2,1,2,2.2,2.2h9.5c1.2,0,2.3-1.1,2.3-2.3v-4c0-.5-.4-.9-.9-.9"/>
  <path d="M13,0h-3.8c-.5,0-.9.5-.9.9,0,.5.4.9.9.9h1.6s-6.8,6.8-6.8,6.8c-.4.4-.3,1,.1,1.3.4.3,1,.3,1.3,0l1.6-1.6,5.1-5.1v1.6c0,.5.5.9,1,.9.5,0,.9-.4.9-.9V1C14,.4,13.6,0,13,0"/>
</svg>