<?xml version="1.0" encoding="UTF-8"?>
<svg id="Layer_1" xmlns="http://www.w3.org/2000/svg" version="1.1" viewBox="0 0 628.5 192.7">
  <!-- Generator: Adobe Illustrator 30.2.1, SVG Export Plug-In . SVG Version: 2.1.1 Build 1)  -->
  <path d="M161.5,51.9c-5-9.3-7.7-14.9-8-16.7,5.2,2.3,8.1,3.2,8.7,2.6.7-.7-3.5-6-12.5-16-3.7-4.1-5.8-6.1-6.1-6.1-.7,0-1.6,2.8-2.6,8.4-.9,5-1.4,8.1-1.4,9.4s.6,1.9,1.7,2.4c1.7,6.6,4.7,14.1,8.9,22.3,7.7,15.3,11.5,23.3,11.5,23.9,0,2.8-8.7,9.6-26.1,20.4-18.5,11.5-37.8,21.8-58,31-14.2,6.5-33.2,14.2-57.2,23-13.6,5.1-20.4,8.1-20.4,8.9s.5.3,1.4.3c2.2,0,9.3-1,21.3-3,29.7-4.9,44.8-7.4,45.1-7.5,11.2-3.6,27.9-12,50.4-25.1,21.4-12.7,34.1-21.3,38.2-26,7.9-9.4,11.9-20,11.9-31.9s-2.2-12.1-6.6-20.4Z"/>
  <polygon points="278.7 176.6 261.1 166.3 252.3 182 270.5 192.7 277.9 179.7 295.6 190 304.3 174.3 286.1 163.6 278.7 176.6"/>
  <polygon points="476.8 46.1 494.9 56.8 503.7 41 489.1 32.4 497.7 17 479.5 6.3 470.8 22 485.4 30.6 476.8 46.1"/>
  <path d="M627.1,67.3c-.8-3.1-1.5-4.7-2.1-4.7s-1.6,2.4-3.5,7.1c-1.9,4.8-2.8,7.6-2.8,8.4s.6,1.9,1.7,3.5c1.1,1.6,1.7,3.1,1.7,4.5,0,2.7-2.6,4-7.8,4s-9.2-1.7-12.2-5.1c-3.4-3.8-4.4-7.7-3-11.5.9-2.8,1.2-4.3.9-4.5-1.2-.9-2.6,0-4.4,2.6-1.3,1.9-2.6,4.6-3.8,8.2-4.6,12.3-12.1,18.5-22.5,18.5s-15.5-3.9-15.5-11.8.8-5.2,2.4-8.7c.6-1,.5-1.7-.2-2.1-.6-.2-1.6.2-3.1,1.4-1,.9-2.4,2.5-4,4.7-10.3,14.2-20.5,21.3-30.5,21.3s0,0-.1,0c0,0,0,0,0,0-5.8,0-10.3-2.1-13.6-6.3-2.6-3.4-3.6-6.3-3.1-8.7.6-3.5.6-5.4,0-5.8l-12,6.8c-5.9,3.4-10.6,5.7-14.2,7-1.7-3.9-3.3-6.6-4.8-8.2-6.6-7.2-12.4-10.8-17.3-10.8s-11,3.4-15.5,10.1c-4,5.9-5.9,11.8-5.9,17.8,0,9.4,6.2,14.1,18.5,14.1s13.8-1.5,20.9-4.5c1.5,2.1,2.3,4.6,2.3,7.7,0,4.6-8.4,13.2-25.1,25.8-18.5,13.7-34.1,20.6-46.8,20.6s-16.2-3-21.5-9.1c-5.2-6-7.9-13.5-7.9-22.5s.7-10.6,2.1-16c1.4-5.5,2.1-8.1,2.1-8,0,0,0,0,0-.1,15.5-9.5,24.8-15.9,27.8-19.1,5.2-5.8,7.8-14.1,7.8-24.7s-2.4-13.9-7.3-18.5c-3.1-2.8-11.3-7.2-24.4-13.2-13.1-6-24.3-13.2-33.5-21.4,4.5-.1,6.9-.6,7.1-1.4.3-.8-3.2-3.5-10.6-8-7.4-4.5-11.9-6.7-13.2-6.4-.3.1-.5,3.1-.3,9.1,0,5.7,0,8.8.2,9.4.9,1.3,1.7,2,2.3,2.1,8.6,11.3,19.9,20.7,33.9,28.2,8.2,4.1,16.4,8.1,24.5,12.2,10.5,5.7,15.8,10.7,15.8,15s-15.8,11.9-47.5,30.1c-26.1,15.2-43.2,22.8-51.2,22.8s-12.5-4.8-12.5-14.5.8-9.2,2.3-14.4c4.5-5.3,6.8-12.6,6.8-22s-4-16.1-12-30.8c4.5.8,6.9.8,7.1,0,.3-1-1.8-4.2-6.5-9.4-4.7-5.2-7.5-7.8-8.3-7.8s-1.3,2.4-2.5,7.2c-1.2,4.8-1.8,7.6-1.8,8.5s.6,1.9,1.9,3.1c2,7,5.4,14.8,10.3,23.5,4.2,7.4,6.3,11.8,6.3,13.2s0,.4-.1.5c0,.1-.1.3-.2.5-1,1.7-4.3,3.7-10.1,6.2-4,1.7-7.7,3-11.1,4.1-1.8-4.2-3.5-7.2-5.1-8.9-6.6-7.2-12.4-10.8-17.3-10.8s-11,3.4-15.5,10.1c-4,5.9-5.9,11.8-5.9,17.8,0,9.4,6.2,14.1,18.5,14.1s13.8-1.5,20.9-4.5c1.5,2.1,2.3,4.6,2.3,7.7,0,4.6-8.4,13.2-25.1,25.8-18.5,13.7-34.1,20.6-46.8,20.6s-16.2-3-21.5-9.1c-5.2-6-7.9-13.5-7.9-22.5s.7-10.6,2.1-16c1.4-5.5,2.1-8.1,2.1-8,0-.5-.1-.8-.3-.9-1.4-.3-3.3,3.4-5.6,11.2-2.6,8.5-3.8,16.7-3.8,24.7s2.6,20.3,7.8,27.2c5.9,7.6,14.4,11.3,25.4,11.3s25.4-5.8,41.3-17.3c13.8-9.9,24.3-20,31.5-30.5,4-5.9,6.1-15.1,6.2-27.3,4.3-1.9,7.9-3.9,11-6.1-2.1,7.7-3.1,15.1-3.1,22.4,0,13.5,5.4,20.2,16.2,20.2s26.8-8.5,55.6-25.4c4.9-2.9,9.3-5.6,13.4-8-.9,1.9-2,4.8-3.2,8.7-2.6,8.5-3.8,16.7-3.8,24.7s2.6,20.3,7.8,27.2c5.9,7.6,14.4,11.3,25.4,11.3s25.4-5.8,41.3-17.3c13.8-9.9,24.3-20,31.5-30.5,4.1-6.1,6.2-15.5,6.3-28.2,6.5-3.5,11.7-7,15.5-10.5.9,13.6,7.4,20.4,19.5,20.4s0,0,.1,0c0,0,0,0,0,0,8,0,15.5-3.4,22.5-10.3,4.6-5.7,8.1-10.2,10.3-13.4-.2,5.2,1.5,9.8,5.1,13.7,3.7,3.9,8.2,5.8,13.5,5.8s9.2-1.6,13.8-4.9c3.9-2.8,6.7-5.9,8.4-9.2,2.7-5.6,4.3-8.8,4.9-9.6,1.4,10.3,7.3,15.5,17.8,15.5s18.1-10,18.1-30-.5-7.3-1.4-10.8ZM451.1,102c-5.5,0-8.2-1.2-8.2-3.5s.7-2.1,2.2-3.1c1.5-1,2.6-1.6,3.6-1.6,4.2,0,8.4,2.4,12.5,7.3-2.8.6-6.2.9-10.1.9ZM252.7,102c-5.5,0-8.2-1.2-8.2-3.5s.7-2.1,2.2-3.1c1.5-1,2.6-1.6,3.6-1.6,4.2,0,8.4,2.4,12.5,7.3-2.8.6-6.2.9-10.1.9Z"/>
</svg>