<?xml version="1.0" encoding="UTF-8"?>
<svg id="Layer_1" xmlns="http://www.w3.org/2000/svg" version="1.1" viewBox="0 0 1268.3 177">
  <!-- Generator: Adobe Illustrator 30.2.1, SVG Export Plug-In . SVG Version: 2.1.1 Build 1)  -->
  <path d="M96.6,53.1c-1.7-9.3-9.3-23.9-30.9-23.9s-26.5,10.3-26.5,21.5,6,16.7,18.4,19.1l23.7,4.5c30.9,6,47.4,26.1,47.4,50s-21.8,52.4-61.2,52.4S2.6,147.8,0,123.7l30.6-8.1c1.4,16.7,13.2,31.8,37.1,31.8s27.5-8.8,27.5-20.8-7.4-17.5-20.6-20.1l-23.7-4.8c-27-5.5-44.5-23-44.5-48.6S33.5,0,65.5,0s56.9,24.9,60.8,44l-29.7,9.1Z"/>
  <path d="M227.5,34.9v138.3h-33.2V34.9h-53.6V3.6h140.4v31.3h-53.6Z"/>
  <path d="M303.3,113.1V3.6h33v107.2c0,22.2,12.4,34,32.1,34s32.3-11.7,32.3-34V3.6h33v109.5c0,41.6-28.9,63.9-65.3,63.9s-65.1-22.2-65.1-63.9Z"/>
  <path d="M470.8,173.2V3.6h60.8c48.3,0,83.7,31.3,83.7,84.9s-35.6,84.7-84,84.7h-60.5ZM530.1,142.6c27.7,0,50.9-17.2,50.9-54.1s-23-54.3-50.7-54.3h-26.5v108.4h26.3Z"/>
  <path d="M644,173.2V3.6h33.5v169.6h-33.5Z"/>
  <path d="M793.2,0c46.2,0,87.3,33.7,87.3,88.5s-41.1,88.3-87.3,88.3-87.1-33.7-87.1-88.3S747.3,0,793.2,0ZM793.2,144.7c26.3,0,53.1-18.2,53.1-56.4s-26.8-56.4-53.1-56.4-52.9,18.2-52.9,56.4,26.8,56.4,52.9,56.4Z"/>
  <path d="M1018.8,107.9h-17.2v65.3h-33.2V3.6h66.3c33,0,54.1,22.7,54.1,52.1s-13.9,41.6-36.1,48.1l36.4,69.4h-36.8l-33.2-65.3ZM1028.4,79.4c16.7,0,26.6-9.6,26.6-23.4s-9.8-23.7-26.6-23.7h-26.8v47.1h26.8Z"/>
  <path d="M1218.3,134.4h-68.9l-14.1,38.7h-34.9L1165.5,3.6h38.3l64.6,169.6h-35.9l-14.1-38.7ZM1160.4,104.3h46.9l-23.4-64.1-23.4,64.1Z"/>
</svg>